<?xml version="1.0" encoding="UTF-8"?>
<svg version="1.1" xmlns="http://www.w3.org/2000/svg" width="40" height="40">
<path d="M0 0 C2.25 -0.25 2.25 -0.25 5 0 C7.87649547 2.30119637 9.55481219 4.6278951 11 8 C11.33 5.69 11.66 3.38 12 1 C13.65 0.67 15.3 0.34 17 0 C19.81568891 6.95640791 18.75276679 13.66561007 18 21 C16.35 21.33 14.7 21.66 13 22 C10.61327331 19.03716687 8.2646629 16.05729491 6 13 C5.7834375 14.11375 5.7834375 14.11375 5.5625 15.25 C5.376875 16.1575 5.19125 17.065 5 18 C4.7834375 19.11375 4.7834375 19.11375 4.5625 20.25 C4.376875 20.8275 4.19125 21.405 4 22 C3.34 22.33 2.68 22.66 2 23 C2 22.34 2 21.68 2 21 C1.01 21 0.02 21 -1 21 C-1.02895976 17.87501937 -1.04678483 14.7500731 -1.0625 11.625 C-1.07087891 10.73554688 -1.07925781 9.84609375 -1.08789062 8.9296875 C-1.09111328 8.07890625 -1.09433594 7.228125 -1.09765625 6.3515625 C-1.10289307 5.56604004 -1.10812988 4.78051758 -1.11352539 3.97119141 C-1 2 -1 2 0 0 Z " fill="#5070F1" transform="translate(2,9)"/>
<path d="M0 0 C9.9609375 -0.29296875 9.9609375 -0.29296875 13 0 C15.30019361 3.45029042 15.43132515 4.94554358 15 9 C14.01 9.66 13.02 10.32 12 11 C12.495 11.7425 12.99 12.485 13.5 13.25 C15 16 15 16 15 20 C13.68 20 12.36 20 11 20 C9.5393715 17.35261084 9 16.10551666 9 13 C8.01 13 7.02 13 6 13 C5.67 15.31 5.34 17.62 5 20 C3.35 20 1.7 20 0 20 C0 13.4 0 6.8 0 0 Z M5 4 C5 5.32 5 6.64 5 8 C6.65 8 8.3 8 10 8 C9.67 6.68 9.34 5.36 9 4 C7.68 4 6.36 4 5 4 Z " fill="#0F0D0C" transform="translate(24,10)"/>
<path d="M0 0 C2.64 0.33 5.28 0.66 8 1 C7.67 1.66 7.34 2.32 7 3 C6.67 3 6.34 3 6 3 C5.67 4.98 5.34 6.96 5 9 C4.34 9 3.68 9 3 9 C3.33 9.66 3.66 10.32 4 11 C4.06950541 12.54023996 4.08452357 14.08334988 4.0625 15.625 C4.05347656 16.44226563 4.04445313 17.25953125 4.03515625 18.1015625 C4.02355469 18.72804688 4.01195312 19.35453125 4 20 C2.68 20 1.36 20 0 20 C0 13.4 0 6.8 0 0 Z " fill="#08090A" transform="translate(24,10)"/>
<path d="M0 0 C2.25 -0.25 2.25 -0.25 5 0 C7.87649547 2.30119637 9.55481219 4.6278951 11 8 C9.68 8 8.36 8 7 8 C7 7.34 7 6.68 7 6 C5.35 5.67 3.7 5.34 2 5 C2.33 4.01 2.66 3.02 3 2 C2.34 2 1.68 2 1 2 C1.020625 3.299375 1.04125 4.59875 1.0625 5.9375 C1.07004972 10.69382325 0.59887117 15.28388953 0 20 C1.65 19.67 3.3 19.34 5 19 C4.34 20.32 3.68 21.64 3 23 C2.67 22.34 2.34 21.68 2 21 C1.01 21 0.02 21 -1 21 C-1.02895976 17.87501937 -1.04678483 14.7500731 -1.0625 11.625 C-1.07087891 10.73554688 -1.07925781 9.84609375 -1.08789062 8.9296875 C-1.09111328 8.07890625 -1.09433594 7.228125 -1.09765625 6.3515625 C-1.10289307 5.56604004 -1.10812988 4.78051758 -1.11352539 3.97119141 C-1 2 -1 2 0 0 Z " fill="#95C6EB" transform="translate(2,9)"/>
<path d="M0 0 C0.99 0 1.98 0 3 0 C3.19466332 1.79090253 3.38051213 3.58276505 3.5625 5.375 C3.66691406 6.37273438 3.77132813 7.37046875 3.87890625 8.3984375 C4 11 4 11 3 13 C1.68 13 0.36 13 -1 13 C-1.0272415 11.58344207 -1.04650467 10.16672955 -1.0625 8.75 C-1.07410156 7.96109375 -1.08570312 7.1721875 -1.09765625 6.359375 C-1.00385306 4.09308998 -0.63241063 2.1711105 0 0 Z " fill="#3F85F1" transform="translate(3,16)"/>
<path d="M0 0 C3.69954399 3.50483115 7.37312911 7.11938732 9 12 C9.66 12.33 10.32 12.66 11 13 C11 13.66 11 14.32 11 15 C6.44984107 13.48328036 4.49942736 9.83108947 2 6 C1.01 6.495 1.01 6.495 0 7 C0 4.69 0 2.38 0 0 Z " fill="#98C1F4" transform="translate(6,16)"/>
<path d="M0 0 C0.99 0.33 1.98 0.66 3 1 C4.2171453 4.00628239 3.98183704 6.58167569 3.5625 9.75 C3.40974609 10.94882812 3.40974609 10.94882812 3.25390625 12.171875 C3.12822266 13.07679687 3.12822266 13.07679687 3 14 C2.34 14 1.68 14 1 14 C0.04738513 9.23692563 -0.08333357 4.8333472 0 0 Z " fill="#5398F4" transform="translate(17,11)"/>
<path d="M0 0 C1.32 0.33 2.64 0.66 4 1 C3.01 1 2.02 1 1 1 C1 5.29 1 9.58 1 14 C0.34 14 -0.32 14 -1 14 C-3.0755814 9.60465116 -3.0755814 9.60465116 -2.75 7 C-1.86893544 4.6504945 -0.96514891 2.31635738 0 0 Z " fill="#AFC7F0" transform="translate(15,9)"/>
<path d="M0 0 C4.50669915 -0.36540804 4.50669915 -0.36540804 6.6875 1.25 C8.0648129 3.08641719 9.0621541 4.90788221 10 7 C8.68 7 7.36 7 6 7 C6 6.34 6 5.68 6 5 C4.35 4.67 2.7 4.34 1 4 C1.33 3.01 1.66 2.02 2 1 C1.34 0.67 0.68 0.34 0 0 Z " fill="#8BA0EE" transform="translate(3,10)"/>
<path d="M0 0 C0.66 0.33 1.32 0.66 2 1 C2 3.97 2 6.94 2 10 C0.68 10 -0.64 10 -2 10 C-1.85950482 8.52031676 -1.71245174 7.04125484 -1.5625 5.5625 C-1.48128906 4.73878906 -1.40007813 3.91507813 -1.31640625 3.06640625 C-1 1 -1 1 0 0 Z " fill="#030202" transform="translate(26,20)"/>
<path d="M0 0 C0.66 0 1.32 0 2 0 C2.33 0.99 2.66 1.98 3 3 C3.99 3.33 4.98 3.66 6 4 C7.6875 5.3125 7.6875 5.3125 9 7 C9 8.32 9 9.64 9 11 C8.01 10.67 7.02 10.34 6 10 C5.690625 9.34 5.38125 8.68 5.0625 8 C4.17972859 5.79394438 4.17972859 5.79394438 1.875 5.25 C1.25625 5.1675 0.6375 5.085 0 5 C0 3.35 0 1.7 0 0 Z " fill="#4B7CF0" transform="translate(3,11)"/>
<path d="M0 0 C0.33 0.66 0.66 1.32 1 2 C0.01 1.67 -0.98 1.34 -2 1 C-1.34 0.67 -0.68 0.34 0 0 Z " fill="#FFFFFF" transform="translate(13,7)"/>
<path d="M0 0 C2 1 2 1 2 1 Z " fill="#FFFFFF" transform="translate(38,32)"/>
<path d="" fill="#FFFFFF" transform="translate(0,0)"/>
<path d="" fill="#00FFFF" transform="translate(0,0)"/>
<path d="" fill="#FFFFFF" transform="translate(0,0)"/>
<path d="" fill="#FFFFFF" transform="translate(0,0)"/>
<path d="" fill="#FFFF00" transform="translate(0,0)"/>
<path d="" fill="#FFFFFF" transform="translate(0,0)"/>
<path d="" fill="#FFFFFF" transform="translate(0,0)"/>
<path d="" fill="#FFFFFF" transform="translate(0,0)"/>
<path d="" fill="#FFFFFF" transform="translate(0,0)"/>
<path d="" fill="#FFFFFF" transform="translate(0,0)"/>
<path d="" fill="#FFFFFF" transform="translate(0,0)"/>
<path d="" fill="#FFFFFF" transform="translate(0,0)"/>
<path d="" fill="#FFFFFF" transform="translate(0,0)"/>
<path d="" fill="#FFFFFF" transform="translate(0,0)"/>
<path d="" fill="#FFFFFF" transform="translate(0,0)"/>
<path d="" fill="#FF00FF" transform="translate(0,0)"/>
<path d="" fill="#FFFFFF" transform="translate(0,0)"/>
<path d="" fill="#FFFFFF" transform="translate(0,0)"/>
<path d="" fill="#FFFF00" transform="translate(0,0)"/>
<path d="" fill="#FFFFFE" transform="translate(0,0)"/>
<path d="" fill="#FFFFFF" transform="translate(0,0)"/>
<path d="" fill="#FFFFFF" transform="translate(0,0)"/>
<path d="" fill="#FFFEFF" transform="translate(0,0)"/>
<path d="" fill="#FFFFFF" transform="translate(0,0)"/>
<path d="" fill="#FFFFFF" transform="translate(0,0)"/>
<path d="" fill="#FFFFFF" transform="translate(0,0)"/>
<path d="" fill="#FFFFFF" transform="translate(0,0)"/>
<path d="" fill="#FF00FF" transform="translate(0,0)"/>
<path d="" fill="#FFFFFF" transform="translate(0,0)"/>
<path d="" fill="#FFFFFF" transform="translate(0,0)"/>
<path d="" fill="#FFFF00" transform="translate(0,0)"/>
</svg>
